<svg width="119" height="24" viewBox="0 0 119 24" fill="none" xmlns="http://www.w3.org/2000/svg">
<g clip-path="url(#clip0_209_842)">
<path d="M0.299805 24V0H4.35746V24H0.299805Z" fill="url(#paint0_linear_209_842)"/>
<path d="M8.42725 24V4H12.4849V8H16.5426V12H12.4849V24H8.42725ZM20.6002 24V16H16.5426V12H20.6002V4H24.6579V24H20.6002Z" fill="url(#paint1_linear_209_842)"/>
<path d="M29.4194 24V4H45.6501V8H33.4771V12H45.6501V16H33.4771V24H29.4194Z" fill="white"/>
<path d="M61.8805 12V8H53.7652V12H61.8805ZM49.7075 24V4H65.9381V16H53.7652V20H65.9381V24H49.7075Z" fill="white"/>
<path d="M69.9961 24V4H86.2267V8H74.0537V24H69.9961Z" fill="white"/>
<path d="M90.2842 24V12H94.3418V24H90.2842ZM90.2842 8V4H94.3418V8H90.2842Z" fill="white"/>
<path d="M98.4116 24V20H102.469V24H98.4116ZM114.642 24V20H118.7V24H114.642ZM102.469 20V16H106.527V20H102.469ZM110.585 20V16H114.642V20H110.585ZM106.527 16V12H110.585V16H106.527ZM102.469 12V8H106.527V12H102.469ZM110.585 12V8H114.642V12H110.585ZM98.4116 8V4H102.469V8H98.4116ZM114.642 8V4H118.7V8H114.642Z" fill="white"/>
</g>
<defs>
<linearGradient id="paint0_linear_209_842" x1="0.299805" y1="24" x2="8.18959" y2="22.6661" gradientUnits="userSpaceOnUse">
<stop stop-color="#00D6D9"/>
<stop offset="1" stop-color="#00C085"/>
</linearGradient>
<linearGradient id="paint1_linear_209_842" x1="8.42725" y1="24" x2="27.9989" y2="8.11698" gradientUnits="userSpaceOnUse">
<stop stop-color="#00D6D9"/>
<stop offset="1" stop-color="#00C085"/>
</linearGradient>
<clipPath id="clip0_209_842">
<rect width="118.4" height="24" fill="white" transform="translate(0.299805)"/>
</clipPath>
</defs>
</svg>
