<svg width="32" height="32" viewBox="0 0 32 32" fill="none" xmlns="http://www.w3.org/2000/svg">
<path fill-rule="evenodd" clip-rule="evenodd" d="M32 16C32 24.8366 24.8366 32 16 32C7.16344 32 0 24.8366 0 16C0 7.16344 7.16344 0 16 0C24.8366 0 32 7.16344 32 16ZM10.0677 8H22.6443C25.1117 8 27.112 10.1235 27.112 12.7429V19.4171C27.112 22.0365 25.1118 24.16 22.6443 24.16H10.0677C7.60031 24.16 5.6 22.0366 5.6 19.4171V12.7429C5.6 10.1235 7.60023 8 10.0677 8ZM13.7404 19.383L19.6227 16.4047C19.7997 16.3152 19.8028 16.0489 19.6276 15.9548L13.7453 12.7903C13.5883 12.7058 13.4024 12.827 13.4024 13.014V19.1569C13.4024 19.3412 13.5835 19.4624 13.7404 19.383Z" fill="white"/>
</svg>
