<svg width="32" height="32" viewBox="0 0 32 32" fill="none" xmlns="http://www.w3.org/2000/svg">
<g clip-path="url(#clip0_2976_26979)">
<path d="M14.2437 16.879C14.2437 18.164 13.323 19.2096 12.1655 19.2096C11.0262 19.2096 10.0874 18.164 10.0874 16.879C10.0874 15.5946 11.008 14.5483 12.1655 14.5483C13.3318 14.5483 14.2618 15.604 14.2437 16.879ZM21.9268 16.879C21.9268 18.164 21.0155 19.2096 19.8487 19.2096C18.7093 19.2096 17.7705 18.164 17.7705 16.879C17.7705 15.5946 18.6912 14.5483 19.8487 14.5483C21.0155 14.5483 21.9449 15.604 21.9268 16.879Z" fill="white"/>
<path d="M16 0C7.16375 0 0 7.16375 0 16C0 24.8363 7.16375 32 16 32C24.8363 32 32 24.8363 32 16C32 7.16375 24.8363 0 16 0ZM27.4319 21.8906C25.4544 23.3431 23.5381 24.225 21.6488 24.8094C21.6187 24.8188 21.5862 24.8075 21.5675 24.7819C21.1312 24.1744 20.735 23.5338 20.3875 22.8612C20.3675 22.8219 20.3856 22.7744 20.4269 22.7588C21.0562 22.5206 21.655 22.2362 22.2313 21.9C22.2769 21.8731 22.2794 21.8081 22.2375 21.7769C22.1156 21.6862 21.9944 21.5906 21.8787 21.495C21.8683 21.4864 21.8557 21.481 21.8423 21.4794C21.8289 21.4777 21.8153 21.4799 21.8031 21.4856C18.0631 23.2137 13.9663 23.2137 10.1819 21.4856C10.1575 21.475 10.1281 21.4788 10.1075 21.4963C9.99187 21.5912 9.87063 21.6862 9.74938 21.7769C9.7075 21.8081 9.71063 21.8731 9.75625 21.9C10.3325 22.23 10.9313 22.5206 11.56 22.7594C11.6013 22.775 11.6206 22.8219 11.6 22.8612C11.2606 23.535 10.8638 24.175 10.4194 24.7825C10.4 24.8075 10.3681 24.8188 10.3381 24.8094C8.4575 24.225 6.54187 23.3431 4.56375 21.8906C4.5475 21.8775 4.53562 21.8575 4.53375 21.8363C4.13125 17.5219 4.9525 13.1538 7.95 8.675C7.9575 8.66313 7.96812 8.65375 7.98125 8.64875C9.47995 7.9598 11.062 7.46901 12.6875 7.18875C12.7175 7.18437 12.7475 7.19812 12.7631 7.22437C12.9675 7.58625 13.2006 8.04938 13.3588 8.42813C15.0994 8.1625 16.8675 8.1625 18.645 8.42813C18.8025 8.0575 19.0275 7.58625 19.2306 7.22437C19.2463 7.19687 19.2762 7.18313 19.3062 7.18875C20.9318 7.46961 22.514 7.96038 24.0131 8.64875C24.0262 8.65375 24.0369 8.66313 24.0431 8.67625C26.6544 12.5169 27.9444 16.8494 27.4619 21.8375C27.46 21.8587 27.4494 21.8775 27.4319 21.8906Z" fill="white"/>
</g>
<defs>
<clipPath id="clip0_2976_26979">
<rect width="32" height="32" fill="white"/>
</clipPath>
</defs>
</svg>
