<svg width="68" height="14" viewBox="0 0 68 14" fill="none" xmlns="http://www.w3.org/2000/svg">
<g clip-path="url(#clip0_3903_8166)">
<path d="M0 13.8919V0.108154H2.3304V13.8919H0Z" fill="url(#paint0_linear_3903_8166)"/>
<path d="M4.66797 13.8919V2.40552H6.99836V4.7028H9.32876V7.00009H6.99836V13.8919H4.66797ZM11.6592 13.8919V9.29737H9.32876V7.00009H11.6592V2.40552H13.9896V13.8919H11.6592Z" fill="url(#paint1_linear_3903_8166)"/>
<path d="M16.7236 13.8919V2.40552H26.0452V4.7028H19.054V7.00009H26.0452V9.29737H19.054V13.8919H16.7236Z" fill="white"/>
<path d="M35.3672 7.00009V4.7028H30.7064V7.00009H35.3672ZM28.376 13.8919V2.40552H37.6976V9.29737H30.7064V11.5947H37.6976V13.8919H28.376Z" fill="white"/>
<path d="M40.0283 13.8919V2.40552H49.3499V4.7028H42.3587V13.8919H40.0283Z" fill="white"/>
<path d="M51.6797 13.8919V7.00009H54.0101V13.8919H51.6797ZM51.6797 4.7028V2.40552H54.0101V4.7028H51.6797Z" fill="white"/>
<path d="M56.3477 13.8919V11.5947H58.6781V13.8919H56.3477ZM65.6692 13.8919V11.5947H67.9996V13.8919H65.6692ZM58.6781 11.5947V9.29737H61.0085V11.5947H58.6781ZM63.3388 11.5947V9.29737H65.6692V11.5947H63.3388ZM61.0085 9.29737V7.00009H63.3388V9.29737H61.0085ZM58.6781 7.00009V4.7028H61.0085V7.00009H58.6781ZM63.3388 7.00009V4.7028H65.6692V7.00009H63.3388ZM56.3477 4.7028V2.40552H58.6781V4.7028H56.3477ZM65.6692 4.7028V2.40552H67.9996V4.7028H65.6692Z" fill="white"/>
</g>
<defs>
<linearGradient id="paint0_linear_3903_8166" x1="0" y1="13.8919" x2="4.53127" y2="13.1258" gradientUnits="userSpaceOnUse">
<stop stop-color="#00D6D9"/>
<stop offset="1" stop-color="#00C085"/>
</linearGradient>
<linearGradient id="paint1_linear_3903_8166" x1="4.66797" y1="13.8919" x2="15.9084" y2="4.76999" gradientUnits="userSpaceOnUse">
<stop stop-color="#00D6D9"/>
<stop offset="1" stop-color="#00C085"/>
</linearGradient>
<clipPath id="clip0_3903_8166">
<rect width="67.9996" height="13.7837" fill="white" transform="translate(0 0.108154)"/>
</clipPath>
</defs>
</svg>
